PathFileType	4	(X/Y/Z)	D:\TRACE\spot_10-12-23\spot_arm_motion_1_2-v60.trc
DataRate	CameraRate	NumFrames	NumMarkers	Units	OrigDataRate	OrigDataStartFrame	OrigNumFrames
100.00	100.00	      14	9	mm	100.00	6126	      7000
Frame#	Time	front left toe			Front right toe			aft left toe			aft right toe			Arm			FL body			FR body			AL Body			AR Body			
		X1	Y1	Z1	X2	Y2	Z2	X3	Y3	Z3	X4	Y4	Z4	X5	Y5	Z5	X6	Y6	Z6	X7	Y7	Z7	X8	Y8	Z8	X9	Y9	Z9	

6126	61.250	-366.07648	21.56681	-25.57384	146.81868	32.60555	-116.31543	-257.35327	-3.43209	559.85327	252.33531	2.04647	465.09201	0.69319	864.61273	-705.69653	-235.79875	558.01880	-118.61980	-86.61932	563.93311	-148.02754	-70.45547	524.68439	749.18683	77.67871	523.63312	722.89917	
6127	61.260	-365.60889	21.75832	-25.69162	147.93150	33.06333	-115.90276	-256.80334	-3.37432	559.77191	252.71968	2.33153	465.25156	0.99676	862.88666	-706.08801	-234.73053	557.93958	-119.13990	-84.91312	563.39734	-148.13547	-71.70947	525.36859	749.42273	77.26093	523.90649	722.90680	
6128	61.270	-364.79343	21.89712	-25.82644	148.61591	32.95092	-116.01293	-256.35388	-3.36391	559.69324	253.13499	2.50624	465.32822	1.53233	860.88031	-707.28241	-233.61827	557.65472	-119.60831	-83.88254	563.35913	-148.74951	-71.28703	525.37128	749.01349	76.54305	524.33514	722.93970	
6129	61.280	-364.16992	21.83736	-25.93388	148.72446	32.48104	-116.28954	-255.98912	-3.21147	559.62122	253.68742	2.70662	465.44464	1.12907	859.31519	-707.86810	-232.33806	557.34552	-120.00684	-82.72916	563.11951	-149.03122	-72.32398	525.79388	748.15570	76.36045	524.72009	723.06995	
6130	61.290	-363.54959	21.84909	-25.98352	149.80257	32.31331	-116.25240	-255.58083	-3.05034	559.53357	254.22308	2.77264	465.37677	-0.00007	857.75189	-707.62933	-231.42021	557.01251	-120.34676	-81.44424	562.74036	-149.22195	-72.39565	526.06708	748.01031	76.37515	524.96918	723.09723	
6131	61.300	-362.71594	21.67781	-26.06031	150.51479	32.27312	-116.28323	-254.98599	-2.93384	559.45215	254.82335	2.85298	465.23553	-0.68831	856.83521	-708.01556	-230.14792	556.63605	-120.58076	-80.48699	562.20380	-148.88412	-72.18607	526.31049	747.86774	76.68735	524.99750	723.17328	
6132	61.310	-362.22681	21.63416	-26.02787	150.26947	31.45527	-116.26393	-254.15497	-2.62563	559.27686	255.61490	2.78135	465.23233	-2.37155	857.03040	-708.69623	-229.42989	556.60144	-120.73924	-79.55196	561.90295	-149.01157	-71.45518	526.94434	748.60229	77.35125	525.28906	723.11755	
6133	61.320	-361.43927	21.58801	-26.05127	150.93988	31.53766	-116.37745	-253.41206	-2.33627	559.17554	256.23517	3.18526	465.13245	-2.24659	856.07507	-710.29413	-228.50214	556.43152	-120.88648	-79.03757	561.65332	-149.16666	-69.79565	526.92590	748.01044	78.09775	525.47424	722.86407	
6134	61.330	-361.18820	21.61720	-26.15777	151.62653	31.50476	-116.48074	-252.86647	-2.20938	559.24597	256.95923	3.25508	464.93259	-4.58168	856.10120	-709.83820	-228.10359	556.38269	-120.94339	-78.62354	561.86621	-149.94354	-69.32752	526.91821	747.79456	78.93200	525.47211	722.70758	
6135	61.340	-360.56137	21.67282	-26.23012	152.04152	31.73028	-116.65607	-252.02438	-1.75755	559.12970	257.78372	3.19713	464.79581	-5.97808	856.15161	-710.06287	-227.67990	556.29810	-121.00982	-77.85762	561.70691	-150.13489	-68.71331	527.58722	748.24213	80.28583	525.66119	722.54901	
6136	61.350	-359.81903	21.68264	-26.21582	152.86526	32.15957	-116.67213	-251.24002	-1.45144	559.14490	258.27478	3.25938	464.64044	-7.76232	856.39099	-709.30408	-227.34169	556.09393	-121.03671	-77.62170	561.63196	-150.12350	-67.08192	527.33582	747.91840	81.05452	525.78314	722.23682	
6137	61.360	-359.24359	21.64032	-26.20938	153.69836	32.07064	-116.89098	-250.50421	-1.32597	559.13348	259.14249	3.36159	464.47165	-9.09155	856.93597	-709.43225	-227.17352	556.01495	-121.04747	-77.45218	561.56030	-150.26280	-65.36449	527.36957	747.85168	83.17236	526.18323	722.81854	
6138	61.370	-358.46631	21.35366	-26.05709	154.78230	32.35505	-116.98808	-249.73857	-0.97661	559.16876	259.95786	3.58734	464.31149	-9.70773	857.51416	-709.52881	-227.11304	555.89642	-120.95065	-77.51504	561.50201	-150.44872	-65.11105	528.01123	747.70184	83.63261	526.07880	721.68195	
6139	61.380	-358.02472	21.27018	-25.92981	154.70328	32.07430	-116.92682	-248.95830	-0.66333	559.18774	260.51462	3.79222	464.33517	-10.05971	858.25775	-709.54352	-227.05885	555.76965	-120.89668	-77.58433	561.40015	-150.61324	-63.25462	527.89880	746.93805	85.20779	526.25934	720.73895	
